# xmcd
#
# Track frame offsets:
#	183
#	11215
#	24310
#	35600
#	52463
#	65903
#	79143
#	87470
#	97700
#	111370
#	124748
#	134615
#	146475
#	161095
#	174355
#	184863
#
# Disc length: 2649 seconds
#
# Revision: 1
# Processed by: cddbd v1.5.2PL0 Copyright (c) Steve Scherf et al.
# Submitted via: audiograbber 1.83.01
#
DISCID=e70a5710
DTITLE=Country Guitar - Country and Western - Super-Hits
DYEAR=1900
DGENRE=Instrumental
TTITLE0=Some Broken Hearts Never Mend
TTITLE1=Home On The Range
TTITLE2=Jambalaya
TTITLE3=Help Me Make It Through The Night
TTITLE4=Oh, Lonesome Me
TTITLE5=I May Fall Again
TTITLE6=Oh, Susanna
TTITLE7=Carry Me Back To Old Virginny
TTITLE8=Play Me A Love Song Tonight
TTITLE9=It's Country Time
TTITLE10=Oh My Darling Clementine
TTITLE11=How Come It Took So Long To Say Goodbye
TTITLE12=A Game I Can't Afford To Lose
TTITLE13=Get Me Back To Tennessee
TTITLE14=The Yellow Rose Of Texas
TTITLE15=Take Me Home Country Roads
EXTD=
EXTT0=
EXTT1=
EXTT2=
EXTT3=
EXTT4=
EXTT5=
EXTT6=
EXTT7=
EXTT8=
EXTT9=
EXTT10=
EXTT11=
EXTT12=
EXTT13=
EXTT14=
EXTT15=
PLAYORDER=
